<?xml version="1.0" standalone="no"?>
<!DOCTYPE svg PUBLIC "-//W3C//DTD SVG 20010904//EN"
 "http://www.w3.org/TR/2001/REC-SVG-20010904/DTD/svg10.dtd">
<svg version="1.0" xmlns="http://www.w3.org/2000/svg"
 width="768.000000pt" height="432.000000pt" viewBox="0 0 768.000000 432.000000"
 preserveAspectRatio="xMidYMid meet">

<g transform="translate(0.000000,432.000000) scale(0.100000,-0.100000)"
fill="#000000" stroke="none">
<path d="M4040 4072 c0 -6 6 -13 13 -16 14 -7 -42 -1 -88 9 -29 6 -29 6 -11
-9 23 -19 25 -19 -96 -17 -76 1 -93 -2 -125 -22 -21 -13 -48 -27 -60 -31 -13
-4 -47 -27 -76 -51 -30 -24 -71 -48 -93 -54 -21 -7 -53 -19 -71 -29 -50 -27
-132 -110 -157 -161 -14 -25 -45 -70 -69 -98 -49 -57 -69 -103 -65 -149 2 -16
-3 -83 -11 -148 -9 -80 -12 -180 -9 -307 4 -148 2 -189 -8 -193 -34 -13 -42
-48 -33 -156 13 -161 32 -249 69 -308 17 -29 33 -52 34 -52 2 0 1 23 -2 50 -5
56 5 63 40 28 14 -14 18 -23 10 -26 -7 -2 -10 -8 -6 -13 3 -5 -2 -12 -10 -15
-25 -10 -19 -54 11 -81 22 -21 33 -24 65 -19 27 4 43 2 53 -8 8 -7 12 -16 9
-19 -10 -10 28 -142 58 -201 33 -65 44 -150 50 -374 3 -88 1 -109 -8 -97 -18
24 -27 1 -27 -64 2 -120 71 -302 207 -541 14 -25 30 -56 36 -70 28 -65 58
-118 86 -151 l31 -35 0 43 c0 32 6 49 21 64 16 15 20 24 13 37 -6 11 -4 31 4
55 10 30 10 37 0 37 -8 0 -16 15 -20 33 -4 17 -15 39 -26 47 -11 9 -19 30 -21
52 -2 34 -4 36 -30 31 -17 -3 -28 -1 -28 6 0 6 7 11 15 11 17 0 19 18 6 39
-11 17 6 71 22 71 17 -1 50 -30 75 -66 15 -22 21 -49 23 -93 2 -65 25 -130 46
-131 6 0 19 -7 27 -16 15 -14 17 -14 22 3 12 38 22 48 59 59 42 11 59 34 26
34 -41 0 -101 87 -71 105 15 9 12 19 -10 43 -18 19 -18 22 -4 30 12 7 14 15 8
33 -4 13 -7 33 -5 43 3 22 -17 94 -32 114 -6 8 -5 17 2 26 6 8 11 18 10 22 -3
20 2 26 14 15 11 -8 18 -6 32 9 16 18 16 20 2 20 -10 0 -17 5 -17 10 0 14 62
51 77 45 7 -2 15 6 19 20 3 14 10 23 14 20 5 -3 16 -2 25 1 13 6 14 9 3 16 -8
5 -3 6 15 2 24 -5 27 -3 27 20 0 14 5 26 10 26 6 0 10 -9 10 -20 0 -11 4 -20
10 -20 6 0 6 9 0 25 -8 20 -6 27 12 36 14 8 18 8 14 0 -4 -6 -2 -11 3 -11 6 0
11 4 11 10 0 5 7 7 15 4 9 -4 16 3 20 19 5 17 12 23 24 20 10 -2 29 7 44 23
28 27 30 47 3 25 -8 -7 -25 -12 -38 -11 -41 4 -59 0 -53 -10 11 -17 -7 -11
-21 8 -12 15 -13 15 -8 0 3 -10 1 -15 -8 -14 -13 3 -47 16 -61 23 -4 3 -6 -1
-5 -7 2 -7 -8 -16 -21 -21 -21 -8 -22 -7 -11 6 11 13 11 18 0 28 -10 9 -13 9
-17 0 -6 -17 -18 -16 -35 0 -23 23 -76 57 -87 57 -14 0 -71 57 -71 71 0 5 -7
12 -15 15 -20 8 -28 40 -15 64 6 12 7 20 1 20 -5 0 -11 9 -13 20 -4 27 -22 27
-26 0 -2 -11 2 -20 8 -20 8 0 8 -6 -1 -21 -11 -21 -11 -21 -25 -1 -8 11 -11
27 -8 36 9 23 -5 39 -22 25 -11 -9 -19 -8 -34 6 -11 10 -20 15 -20 11 0 -10
23 -48 43 -70 9 -11 17 -26 17 -33 0 -7 5 -13 10 -13 10 0 50 -36 50 -45 0
-13 -34 -3 -54 18 -13 12 -38 33 -55 46 -17 13 -31 29 -31 37 0 8 -9 19 -20
26 -11 7 -20 23 -20 35 0 22 -31 40 -50 28 -5 -3 -10 1 -10 10 0 9 -4 14 -8
11 -12 -7 -80 109 -93 158 -8 31 -7 48 4 77 9 22 11 42 6 50 -6 11 -9 11 -9 1
0 -10 -4 -10 -20 0 -11 7 -20 21 -20 31 0 17 -2 17 -22 3 -20 -15 -23 -14 -40
15 -10 16 -18 38 -18 49 0 12 -5 17 -14 14 -14 -5 -43 50 -38 74 2 6 -4 13
-13 13 -8 1 -21 2 -27 3 -15 1 -16 68 -3 217 5 67 12 96 21 96 17 0 36 -45 29
-67 -3 -10 1 -25 10 -33 17 -17 21 -87 5 -87 -5 0 -10 -18 -10 -40 0 -22 5
-40 10 -40 6 0 10 18 10 40 0 33 3 40 19 40 11 0 22 9 26 19 3 11 18 21 35 23
27 4 29 2 24 -19 -6 -22 -4 -23 57 -23 35 0 81 5 102 11 28 7 42 7 52 -1 10
-9 20 -7 39 5 18 12 26 13 26 5 0 -6 -9 -14 -19 -17 -21 -5 -21 -4 9 -63 6
-11 7 -20 3 -20 -5 0 -14 -14 -21 -30 -8 -17 -19 -36 -26 -43 -6 -6 -22 -29
-35 -49 -12 -21 -43 -56 -69 -78 -26 -22 -41 -40 -34 -40 9 0 10 -5 2 -19 -18
-34 -12 -113 12 -151 l22 -35 6 25 7 25 10 -24 c7 -17 12 -21 17 -12 4 6 2 18
-4 26 -7 8 -10 20 -7 27 3 8 10 2 17 -15 8 -15 29 -37 47 -48 19 -12 41 -32
50 -45 8 -13 23 -24 33 -24 10 0 20 -6 23 -12 6 -21 202 -16 250 6 21 9 35 21
32 26 -3 5 -12 7 -20 3 -8 -3 -15 -1 -15 5 0 22 13 42 26 42 8 0 14 4 14 9 0
5 9 13 20 16 23 7 27 25 6 25 -8 0 -17 -7 -20 -16 -4 -11 -17 -15 -43 -13 -21
1 -45 -1 -53 -4 -8 -4 -40 -8 -71 -10 -30 -2 -61 -7 -67 -11 -6 -4 -22 -1 -34
5 -13 7 -25 11 -28 10 -3 -1 -6 7 -8 19 -3 15 1 18 12 14 11 -4 16 0 16 11 0
13 6 16 24 11 12 -3 26 -2 30 2 4 4 20 8 34 9 88 5 179 34 167 53 -7 12 -97
28 -167 29 -53 1 -47 18 8 27 25 3 41 10 35 13 -12 8 22 51 39 51 6 0 2 8 -7
19 -10 10 -22 18 -27 17 -5 -1 -19 15 -32 34 -12 19 -32 44 -43 56 -21 21 -26
74 -8 74 5 0 6 11 3 24 -3 13 1 44 10 68 10 32 13 64 9 109 -3 35 -8 91 -11
124 -6 66 -15 82 -47 87 -12 2 -21 9 -20 15 2 6 -14 22 -33 34 -39 24 -158 38
-191 23 -10 -4 -22 -8 -28 -9 -33 -4 -102 -30 -111 -42 -6 -7 -18 -11 -27 -7
-18 6 -16 32 3 44 9 5 11 22 8 54 -3 25 -2 46 3 46 5 0 9 14 9 30 0 26 -3 30
-29 30 -29 0 -30 2 -36 64 -9 78 -4 102 17 98 9 -1 27 8 41 20 45 44 67 58 88
58 12 0 30 11 41 25 11 14 24 23 28 20 5 -3 17 6 26 20 9 14 24 25 33 25 9 0
21 4 27 10 5 5 64 16 129 24 66 9 152 21 190 28 39 7 114 12 167 11 85 -1 105
-5 160 -32 35 -16 73 -40 84 -53 29 -32 60 -111 78 -196 8 -39 21 -86 29 -104
35 -84 68 -202 83 -298 26 -167 61 -221 76 -116 4 26 13 55 21 64 7 10 23 34
35 55 l22 39 -18 66 c-18 63 -28 115 -68 345 -9 50 -22 107 -30 125 -11 25
-11 43 -3 83 8 36 8 54 1 61 -6 6 -9 23 -6 37 2 14 -4 51 -14 81 -16 47 -23
55 -49 61 -40 8 -53 17 -53 38 0 9 -20 37 -45 61 -47 46 -57 47 -29 4 9 -13
14 -28 10 -31 -7 -8 -30 21 -48 60 -7 15 -17 26 -23 24 -5 -2 -23 9 -40 25
-16 15 -40 28 -53 28 -13 0 -33 5 -45 12 -12 7 -47 15 -77 19 -30 3 -63 9 -72
14 -11 4 -18 3 -18 -3z m235 -72 c3 -5 2 -10 -4 -10 -5 0 -13 5 -16 10 -3 6
-2 10 4 10 5 0 13 -4 16 -10z m-929 -1046 c-19 -18 -20 -6 -4 33 11 27 12 27
15 5 3 -12 -3 -29 -11 -38z m270 -27 c7 -7 -49 -24 -105 -33 -38 -5 -43 -4
-30 7 23 23 57 34 95 33 20 -1 38 -4 40 -7z m-329 -29 c-3 -7 -5 -2 -5 12 0
14 2 19 5 13 2 -7 2 -19 0 -25z m0 -40 c-3 -8 -6 -5 -6 6 -1 11 2 17 5 13 3
-3 4 -12 1 -19z m373 -38 c0 -5 -5 -10 -11 -10 -5 0 -7 5 -4 10 3 6 8 10 11
10 2 0 4 -4 4 -10z m-403 -410 c0 -35 -1 -38 -12 -23 -9 12 -10 23 -2 40 6 13
11 23 12 23 1 0 2 -18 2 -40z m523 -140 c0 -5 -2 -10 -4 -10 -3 0 -8 5 -11 10
-3 6 -1 10 4 10 6 0 11 -4 11 -10z m-223 -52 c-3 -8 -6 -5 -6 6 -1 11 2 17 5
13 3 -3 4 -12 1 -19z m-110 -50 c-3 -7 -5 -2 -5 12 0 14 2 19 5 13 2 -7 2 -19
0 -25z m130 10 c-3 -8 -6 -5 -6 6 -1 11 2 17 5 13 3 -3 4 -12 1 -19z m-187
-48 c0 -5 -5 -10 -11 -10 -5 0 -7 5 -4 10 3 6 8 10 11 10 2 0 4 -4 4 -10z
m590 -40 c0 -5 -4 -10 -10 -10 -5 0 -10 5 -10 10 0 6 5 10 10 10 6 0 10 -4 10
-10z m-30 -10 c0 -5 -8 -10 -17 -10 -15 0 -16 2 -3 10 19 12 20 12 20 0z m165
-510 c-3 -5 -10 -10 -16 -10 -5 0 -9 5 -9 10 0 6 7 10 16 10 8 0 12 -4 9 -10z
m-515 -250 c0 -22 5 -40 10 -40 6 0 10 -18 10 -40 0 -53 -25 -55 -34 -2 -9 57
-7 122 4 122 6 0 10 -18 10 -40z m100 -30 c0 -5 -4 -10 -10 -10 -5 0 -10 5
-10 10 0 6 5 10 10 10 6 0 10 -4 10 -10z m-10 -100 c-19 -13 -30 -13 -30 0 0
6 10 10 23 10 18 0 19 -2 7 -10z"/>
<path d="M3440 3148 c0 -30 1 -31 16 -16 9 9 14 24 11 32 -11 27 -27 17 -27
-16z"/>
<path d="M4081 3059 c-64 -8 -85 -31 -62 -68 9 -15 71 -12 201 8 38 6 78 5
129 -5 41 -8 76 -12 78 -10 7 7 -35 34 -84 55 -57 23 -167 32 -262 20z"/>
<path d="M4160 2966 c-3 -2 -25 -6 -48 -7 -24 -2 -42 -8 -42 -15 0 -6 -16 -24
-36 -39 -27 -21 -34 -33 -32 -53 2 -17 8 -26 17 -24 8 2 11 -3 8 -11 -3 -9 1
-14 11 -13 12 1 16 -6 15 -21 -1 -11 4 -24 13 -27 32 -12 172 -18 190 -8 16 9
14 11 -19 17 -34 7 -62 25 -38 25 6 0 11 5 11 11 0 36 95 76 148 63 12 -4 22
-2 22 2 -1 16 -47 42 -103 59 -32 9 -57 19 -57 22 0 3 26 3 58 0 42 -4 49 -3
27 3 -39 12 -139 23 -145 16z m145 -76 c3 -5 -1 -10 -9 -10 -9 0 -16 5 -16 10
0 6 4 10 9 10 6 0 13 -4 16 -10z m-155 -20 c0 -5 -4 -10 -10 -10 -5 0 -10 5
-10 10 0 6 5 10 10 10 6 0 10 -4 10 -10z"/>
<path d="M4350 2920 c0 -5 9 -14 20 -20 22 -12 27 -1 8 18 -14 14 -28 16 -28
2z"/>
<path d="M4784 2777 c3 -60 7 -111 10 -115 10 -9 5 181 -4 203 -6 13 -8 -19
-6 -88z"/>
<path d="M4666 2711 c-4 -7 -5 -15 -2 -18 9 -9 19 4 14 18 -4 11 -6 11 -12 0z"/>
<path d="M4689 2620 c-1 -22 -2 -45 -3 -52 -1 -6 4 -13 9 -15 18 -5 35 12 41
43 5 25 1 33 -20 47 l-26 17 -1 -40z"/>
<path d="M4305 2459 c-4 -5 4 -20 17 -32 55 -52 79 -90 78 -121 -1 -17 -1 -40
0 -51 l1 -20 9 20 c15 35 11 86 -10 119 -27 44 -88 98 -95 85z"/>
<path d="M3960 2335 c12 -15 30 -12 30 6 0 5 -10 9 -21 9 -18 0 -19 -2 -9 -15z"/>
<path d="M4347 2316 c-8 -8 -40 -21 -72 -30 -69 -18 -74 -22 -49 -40 16 -13
17 -18 7 -35 -17 -27 -16 -31 5 -31 22 0 63 36 87 78 11 17 27 32 37 32 10 0
18 6 18 14 0 22 -17 28 -33 12z"/>
<path d="M3865 1940 c-9 -15 -1 -23 21 -18 15 3 16 4 1 16 -11 9 -17 10 -22 2z"/>
<path d="M3690 1909 c0 -5 5 -7 10 -4 6 3 10 8 10 11 0 2 -4 4 -10 4 -5 0 -10
-5 -10 -11z"/>
<path d="M3860 1850 c0 -5 7 -10 16 -10 8 0 12 5 9 10 -3 6 -10 10 -16 10 -5
0 -9 -4 -9 -10z"/>
<path d="M4603 1508 c8 -64 -13 -184 -44 -261 -46 -112 -84 -186 -96 -182 -7
2 -22 -12 -33 -31 -12 -19 -28 -41 -36 -48 -21 -21 -53 -114 -47 -137 5 -17
11 -19 37 -13 17 3 36 7 41 8 15 2 8 -74 -8 -93 -8 -9 -15 -34 -15 -56 1 -38
-9 -60 -65 -159 -13 -23 -16 -25 -11 -8 6 23 5 23 -24 8 -31 -16 -46 -41 -35
-58 3 -7 1 -8 -6 -4 -16 10 -41 -12 -41 -37 0 -11 -9 -34 -19 -51 -19 -30 -21
-35 -21 -56 0 -5 -7 -10 -16 -10 -9 0 -25 -11 -36 -25 -21 -27 -43 -32 -51
-12 -3 6 -6 3 -6 -8 -1 -12 3 -25 9 -31 5 -5 11 -22 12 -37 3 -37 12 -34 45
13 15 22 68 93 116 158 48 64 94 131 101 147 13 28 23 42 79 105 55 62 106
137 105 155 -2 28 20 91 38 105 7 7 14 21 14 31 0 11 5 19 12 19 6 0 9 3 5 6
-5 6 19 99 31 119 4 6 9 -3 13 -20 10 -47 8 156 -2 295 -11 132 -25 206 -42
217 -7 4 -8 -12 -4 -49z"/>
<path d="M3180 1161 c0 -11 -4 -23 -10 -26 -5 -3 -10 -18 -9 -33 l1 -27 13 30
c22 52 27 75 16 75 -6 0 -11 -9 -11 -19z"/>
<path d="M3163 995 c0 -27 2 -38 4 -22 2 15 2 37 0 50 -2 12 -4 0 -4 -28z"/>
<path d="M4196 705 c-3 -8 -12 -15 -21 -15 -8 0 -15 -9 -15 -21 0 -11 5 -17
10 -14 6 3 13 0 16 -9 10 -26 34 -6 34 29 0 36 -14 54 -24 30z"/>
<path d="M4661 664 c0 -11 3 -14 6 -6 3 7 2 16 -1 19 -3 4 -6 -2 -5 -13z"/>
<path d="M3575 591 c-102 -104 -170 -131 -334 -131 -111 0 -129 -14 -33 -25
31 -4 64 -9 72 -12 26 -10 110 -12 115 -2 4 5 15 9 26 9 11 0 17 -4 14 -10 -3
-5 -2 -10 4 -10 14 0 61 -48 62 -63 0 -7 2 -19 4 -27 2 -8 17 -82 33 -163 17
-82 33 -151 36 -154 17 -17 14 15 -8 128 -38 188 -58 318 -51 340 8 23 33 19
77 -12 14 -11 32 -19 40 -19 7 0 19 -9 26 -20 7 -11 19 -20 26 -20 8 0 17 -9
21 -20 3 -10 19 -30 36 -44 16 -14 29 -29 29 -35 0 -6 11 -21 25 -35 14 -14
25 -24 25 -22 0 2 -22 48 -50 102 -27 54 -47 100 -45 103 3 2 6 2 8 0 1 -2 21
-25 44 -50 30 -34 44 -44 52 -36 8 8 15 2 23 -21 8 -20 18 -30 26 -27 9 3 11
-1 7 -15 -5 -14 -2 -20 10 -20 8 0 18 -7 22 -16 5 -13 7 -13 14 -2 7 11 11 10
18 -2 5 -8 8 -17 5 -21 -2 -4 11 -19 28 -34 38 -32 48 -46 54 -83 7 -38 11
-38 33 -1 20 32 20 33 0 57 -10 14 -19 33 -19 43 0 10 -14 28 -32 40 -17 13
-26 25 -20 27 6 2 -15 29 -47 60 -86 86 -88 88 -60 112 13 10 30 19 37 20 7 0
11 4 7 9 -3 6 -27 7 -53 4 -65 -7 -113 15 -151 69 -47 68 -72 98 -80 98 -5 0
-39 -31 -76 -69z"/>
<path d="M4660 598 c-5 -13 -29 -48 -52 -78 -54 -68 -115 -102 -174 -96 -48 4
-59 0 -69 -32 -5 -18 -3 -25 13 -29 11 -2 19 -12 17 -21 -1 -10 0 -11 2 -4 3
7 21 12 43 12 28 0 43 6 57 23 10 13 28 26 40 29 18 5 23 1 28 -23 4 -16 4
-42 0 -57 -4 -20 -1 -33 10 -42 8 -7 15 -20 15 -29 1 -15 15 17 38 84 5 17 15
55 21 87 7 31 18 59 25 61 9 3 26 -20 50 -66 20 -39 36 -63 36 -54 0 9 7 20
16 25 22 12 64 3 64 -15 0 -8 14 -19 30 -24 17 -6 30 -16 30 -21 0 -6 9 -8 20
-5 15 4 20 0 20 -13 0 -37 16 -28 28 15 8 31 20 48 39 59 l27 14 -48 23 c-27
12 -77 48 -110 79 -128 118 -195 148 -216 98z m-270 -212 c0 -3 -4 -8 -10 -11
-5 -3 -10 -1 -10 4 0 6 5 11 10 11 6 0 10 -2 10 -4z"/>
<path d="M2050 530 c0 -5 5 -10 10 -10 6 0 10 5 10 10 0 6 -4 10 -10 10 -5 0
-10 -4 -10 -10z"/>
<path d="M4336 393 c-6 -14 -5 -15 5 -6 7 7 10 15 7 18 -3 3 -9 -2 -12 -12z"/>
<path d="M2311 360 c-1 -8 3 -21 8 -29 12 -19 3 -41 -16 -41 -13 0 -13 -4 2
-26 9 -14 14 -32 11 -39 -3 -9 0 -12 10 -8 8 3 14 -1 14 -11 0 -9 5 -16 10
-16 6 0 10 -8 10 -18 0 -10 5 -23 11 -29 5 -5 11 -21 13 -34 6 -48 27 -109 37
-109 6 0 9 6 6 12 -7 19 -24 78 -38 128 -7 25 -16 49 -21 54 -4 6 -8 23 -8 39
0 24 -3 27 -20 22 -11 -4 -20 -2 -20 4 0 6 7 11 15 11 20 0 19 19 -5 66 -10
21 -19 32 -19 24z"/>
<path d="M4330 345 c-9 -10 -9 -15 -1 -15 6 0 11 5 11 11 0 5 5 7 12 3 7 -4 8
-3 4 4 -9 15 -11 15 -26 -3z"/>
<path d="M3975 40 c-7 -11 5 -40 16 -40 5 0 9 2 9 4 0 2 3 11 6 19 6 16 -22
32 -31 17z"/>
</g>
</svg>
